<svg width="11" height="11" viewBox="0 0 11 11" fill="none" xmlns="http://www.w3.org/2000/svg">
<g clip-path="url(#clip0_5_1592)">
<path fill-rule="evenodd" clip-rule="evenodd" d="M6.03906 0.341772L7.26391 2.80192C7.35411 2.98012 7.52571 3.10497 7.72536 3.13467L10.4737 3.53452C10.6343 3.55817 10.7806 3.64177 10.8774 3.77047C10.9764 3.89972 11.0171 4.06087 10.9934 4.21982C10.9742 4.35072 10.9115 4.47337 10.8174 4.56577L8.82533 6.49517C8.67958 6.63267 8.61303 6.83012 8.64713 7.02537L9.13938 9.74129C9.19273 10.0658 8.97603 10.3727 8.64713 10.4392C8.51403 10.4607 8.37653 10.4392 8.25608 10.3771L5.80256 9.0989C5.61996 9.0065 5.40546 9.0065 5.22506 9.0989L2.77151 10.3771C2.46791 10.5382 2.09061 10.4266 1.92671 10.1301C1.86511 10.0119 1.84366 9.87659 1.86291 9.7457L2.35406 7.02977C2.38926 6.83672 2.32271 6.63652 2.17641 6.49902L0.184309 4.57182C0.068809 4.45797 0.00170898 4.30342 0.00170898 4.14227C0.00170898 3.98112 0.068809 3.82657 0.184309 3.71272C0.278909 3.61812 0.403209 3.55597 0.539059 3.53892L3.28741 3.13907C3.48651 3.10882 3.65811 2.98672 3.74666 2.80632L4.93026 0.341772C5.03311 0.133322 5.25036 0.000222458 5.48906 0.00462246H5.56221C5.76846 0.0304724 5.94886 0.156972 6.03906 0.341772Z" fill="#FF9C07"/>
<path fill-rule="evenodd" clip-rule="evenodd" d="M5.50426 9.02581C5.39647 9.02581 5.29581 9.06211 5.19901 9.10941L2.75426 10.3838C2.46001 10.5317 2.08822 10.4135 1.92707 10.1302C1.86492 10.0142 1.84126 9.88106 1.86271 9.74961L2.35442 7.04083C2.38687 6.84283 2.32031 6.64538 2.17622 6.50568L0.180263 4.57628C-0.0600875 4.34033 -0.0600875 3.95533 0.180263 3.71718C0.274863 3.62478 0.397512 3.56428 0.528413 3.54503L3.28721 3.13913C3.49731 3.10888 3.65022 2.99118 3.74647 2.80638L4.94547 0.313784C5.03567 0.111934 5.34311 -0.0277659 5.50866 0.00468409C5.50426 0.170234 5.50426 8.91636 5.50426 9.02581Z" fill="#E78B01"/>
</g>
<defs>
<clipPath id="clip0_5_1592">
<rect width="11" height="11" fill="white"/>
</clipPath>
</defs>
</svg>
