<svg width="17" height="15" viewBox="0 0 17 15" fill="none" xmlns="http://www.w3.org/2000/svg">
<path d="M16.8334 7.50003C16.8334 7.77628 16.7236 8.04128 16.5282 8.23659C16.3329 8.4319 16.0679 8.54169 15.7917 8.54169H3.71877L8.19794 13.0104C8.39408 13.2066 8.50429 13.4726 8.50429 13.75C8.50429 14.0274 8.39408 14.2935 8.19794 14.4896C8.00179 14.6858 7.73575 14.796 7.45835 14.796C7.18096 14.796 6.91492 14.6858 6.71877 14.4896L0.468769 8.23961C0.371134 8.14274 0.293644 8.02753 0.240759 7.90065C0.187873 7.77367 0.160645 7.63753 0.160645 7.50003C0.160645 7.36253 0.187873 7.22638 0.240759 7.0994C0.293644 6.97253 0.371134 6.85732 0.468769 6.76044L6.71877 0.510445C6.81585 0.41332 6.93117 0.336278 7.05814 0.283716C7.18502 0.231153 7.32096 0.204102 7.45835 0.204102C7.59575 0.204102 7.73169 0.231153 7.85856 0.283716C7.98554 0.336278 8.10085 0.41332 8.19794 0.510445C8.29502 0.60757 8.3721 0.722872 8.42471 0.849768C8.47721 0.976674 8.50429 1.11267 8.50429 1.25003C8.50429 1.38738 8.47721 1.52339 8.42471 1.65029C8.3721 1.77718 8.29502 1.89249 8.19794 1.98961L3.71877 6.45836H15.7917C16.0679 6.45836 16.3329 6.56815 16.5282 6.76347C16.7236 6.95878 16.8334 7.22378 16.8334 7.50003Z" fill="#222221"/>
</svg>
